<svg xmlns="http://www.w3.org/2000/svg" xmlns:xlink="http://www.w3.org/1999/xlink" width="120" zoomAndPan="magnify" viewBox="0 0 90 67.499998" height="90" preserveAspectRatio="xMidYMid meet" version="1.0"><defs><clipPath id="962ca017c0"><path d="M 25.472656 11.402344 L 64.183594 11.402344 L 64.183594 55.328125 L 25.472656 55.328125 Z M 25.472656 11.402344 " clip-rule="nonzero"/></clipPath><clipPath id="e0675806f7"><path d="M 25.472656 33 L 64 33 L 64 55.328125 L 25.472656 55.328125 Z M 25.472656 33 " clip-rule="nonzero"/></clipPath><clipPath id="59bf987804"><path d="M 44 22 L 64.183594 22 L 64.183594 45 L 44 45 Z M 44 22 " clip-rule="nonzero"/></clipPath></defs><g clip-path="url(#962ca017c0)"><path fill="#5c8dbc" d="M 64.125 24.410156 C 64.125 23.679688 63.96875 23.035156 63.652344 22.480469 C 63.339844 21.933594 62.878906 21.476562 62.253906 21.113281 C 57.117188 18.144531 51.972656 15.183594 46.835938 12.210938 C 45.453125 11.40625 44.109375 11.4375 42.734375 12.25 C 40.691406 13.460938 30.449219 19.339844 27.398438 21.113281 C 26.140625 21.84375 25.53125 22.960938 25.53125 24.410156 C 25.527344 30.382812 25.53125 36.359375 25.527344 42.332031 C 25.527344 43.046875 25.679688 43.679688 25.980469 44.226562 C 26.289062 44.789062 26.761719 45.257812 27.398438 45.628906 C 30.449219 47.398438 40.6875 53.28125 42.734375 54.492188 C 44.109375 55.304688 45.453125 55.335938 46.835938 54.53125 C 51.976562 51.558594 57.117188 48.597656 62.257812 45.628906 C 62.894531 45.257812 63.363281 44.785156 63.675781 44.226562 C 63.976562 43.679688 64.125 43.046875 64.125 42.328125 C 64.125 42.328125 64.125 30.386719 64.125 24.410156 " fill-opacity="1" fill-rule="nonzero"/></g><g clip-path="url(#e0675806f7)"><path fill="#1a4674" d="M 44.886719 33.3125 L 25.980469 44.226562 C 26.289062 44.789062 26.761719 45.257812 27.398438 45.628906 C 30.449219 47.398438 40.6875 53.28125 42.734375 54.492188 C 44.109375 55.304688 45.453125 55.335938 46.835938 54.53125 C 51.976562 51.558594 57.117188 48.597656 62.257812 45.628906 C 62.894531 45.257812 63.363281 44.785156 63.675781 44.226562 L 44.886719 33.3125 " fill-opacity="1" fill-rule="nonzero"/></g><path fill="#1a4674" d="M 39.285156 36.546875 C 40.386719 38.472656 42.453125 39.769531 44.828125 39.769531 C 47.214844 39.769531 49.292969 38.453125 50.390625 36.507812 L 44.886719 33.3125 L 39.285156 36.546875 " fill-opacity="1" fill-rule="nonzero"/><g clip-path="url(#59bf987804)"><path fill="#1b598e" d="M 64.125 24.410156 C 64.125 23.679688 63.96875 23.035156 63.652344 22.480469 L 44.886719 33.3125 L 63.675781 44.226562 C 63.976562 43.679688 64.125 43.046875 64.125 42.328125 C 64.125 42.328125 64.125 30.386719 64.125 24.410156 " fill-opacity="1" fill-rule="nonzero"/></g><path fill="#ffffff" d="M 63.089844 34.09375 L 61.625 34.09375 L 61.625 35.5625 L 60.152344 35.5625 L 60.152344 34.09375 L 58.6875 34.09375 L 58.6875 32.621094 L 60.152344 32.621094 L 60.152344 31.148438 L 61.625 31.148438 L 61.625 32.621094 L 63.089844 32.621094 L 63.089844 34.09375 " fill-opacity="1" fill-rule="nonzero"/><path fill="#ffffff" d="M 57.734375 34.09375 L 56.265625 34.09375 L 56.265625 35.5625 L 54.796875 35.5625 L 54.796875 34.09375 L 53.328125 34.09375 L 53.328125 32.621094 L 54.796875 32.621094 L 54.796875 31.148438 L 56.265625 31.148438 L 56.265625 32.621094 L 57.734375 32.621094 L 57.734375 34.09375 " fill-opacity="1" fill-rule="nonzero"/><path fill="#ffffff" d="M 50.390625 36.507812 C 49.292969 38.453125 47.214844 39.769531 44.828125 39.769531 C 42.453125 39.769531 40.386719 38.472656 39.285156 36.546875 C 38.75 35.609375 38.445312 34.527344 38.445312 33.371094 C 38.445312 29.835938 41.300781 26.972656 44.828125 26.972656 C 47.183594 26.972656 49.242188 28.253906 50.347656 30.160156 L 55.925781 26.941406 C 53.707031 23.101562 49.570312 20.519531 44.828125 20.519531 C 37.746094 20.519531 32.007812 26.273438 32.007812 33.371094 C 32.007812 35.699219 32.628906 37.882812 33.707031 39.765625 C 35.917969 43.625 40.070312 46.222656 44.828125 46.222656 C 49.59375 46.222656 53.75 43.613281 55.957031 39.746094 L 50.390625 36.507812 " fill-opacity="1" fill-rule="nonzero"/></svg>