<svg xmlns="http://www.w3.org/2000/svg" xmlns:xlink="http://www.w3.org/1999/xlink" width="120" zoomAndPan="magnify" viewBox="0 0 90 67.499998" height="90" preserveAspectRatio="xMidYMid meet" version="1.0"><defs><clipPath id="6be571d39d"><path d="M 25 11.402344 L 65.203125 11.402344 L 65.203125 55.328125 L 25 55.328125 Z M 25 11.402344 " clip-rule="nonzero"/></clipPath><clipPath id="97b6b9419b"><path d="M 25 11.402344 L 65 11.402344 L 65 45 L 25 45 Z M 25 11.402344 " clip-rule="nonzero"/></clipPath><clipPath id="a0a25f9916"><path d="M 44 22 L 65.203125 22 L 65.203125 45 L 44 45 Z M 44 22 " clip-rule="nonzero"/></clipPath></defs><g clip-path="url(#6be571d39d)"><path fill="#283593" d="M 43.945312 11.804688 C 44.660156 11.40625 45.539062 11.40625 46.253906 11.804688 C 49.785156 13.761719 60.414062 19.664062 63.945312 21.625 C 64.660156 22.019531 65.101562 22.75 65.101562 23.542969 C 65.101562 27.464844 65.101562 39.261719 65.101562 43.183594 C 65.101562 43.976562 64.660156 44.707031 63.945312 45.105469 C 60.414062 47.066406 49.789062 52.964844 46.253906 54.925781 C 45.539062 55.320312 44.660156 55.320312 43.945312 54.925781 C 40.414062 52.964844 29.785156 47.066406 26.253906 45.105469 C 25.539062 44.707031 25.097656 43.976562 25.097656 43.183594 C 25.097656 39.265625 25.097656 27.464844 25.097656 23.546875 C 25.097656 22.753906 25.539062 22.019531 26.253906 21.625 C 29.785156 19.664062 40.414062 13.761719 43.945312 11.804688 Z M 43.945312 11.804688 " fill-opacity="1" fill-rule="evenodd"/></g><g clip-path="url(#97b6b9419b)"><path fill="#5c6bc0" d="M 25.417969 44.195312 C 25.140625 43.824219 25.097656 43.472656 25.097656 42.996094 C 25.097656 39.101562 25.097656 27.371094 25.097656 23.472656 C 25.097656 22.683594 25.539062 21.953125 26.25 21.5625 C 29.769531 19.613281 40.363281 13.746094 43.882812 11.796875 C 44.59375 11.402344 45.558594 11.410156 46.273438 11.804688 C 49.792969 13.753906 60.347656 19.570312 63.867188 21.519531 C 64.152344 21.675781 64.367188 21.867188 64.5625 22.117188 Z M 25.417969 44.195312 " fill-opacity="1" fill-rule="evenodd"/></g><path fill="#ffffff" d="M 45.101562 18.792969 C 53.234375 18.792969 59.839844 25.320312 59.839844 33.363281 C 59.839844 41.40625 53.234375 47.9375 45.101562 47.9375 C 36.964844 47.9375 30.363281 41.40625 30.363281 33.363281 C 30.363281 25.320312 36.964844 18.792969 45.101562 18.792969 Z M 45.101562 26.078125 C 49.167969 26.078125 52.46875 29.34375 52.46875 33.363281 C 52.46875 37.386719 49.167969 40.648438 45.101562 40.648438 C 41.035156 40.648438 37.730469 37.386719 37.730469 33.363281 C 37.730469 29.34375 41.03125 26.078125 45.101562 26.078125 Z M 45.101562 26.078125 " fill-opacity="1" fill-rule="evenodd"/><g clip-path="url(#a0a25f9916)"><path fill="#3949ab" d="M 64.558594 22.128906 C 65.101562 22.628906 65.09375 23.386719 65.09375 23.984375 C 65.09375 27.933594 65.058594 39.171875 65.101562 43.121094 C 65.105469 43.53125 64.96875 43.964844 64.761719 44.292969 L 44.671875 33.363281 Z M 64.558594 22.128906 " fill-opacity="1" fill-rule="evenodd"/></g></svg>