<svg xmlns="http://www.w3.org/2000/svg" xmlns:xlink="http://www.w3.org/1999/xlink" width="120" zoomAndPan="magnify" viewBox="0 0 90 67.499998" height="90" preserveAspectRatio="xMidYMid meet" version="1.0"><defs><clipPath id="f6170cc376"><path d="M 12.710938 35 L 40 35 L 40 48.757812 L 12.710938 48.757812 Z M 12.710938 35 " clip-rule="nonzero"/></clipPath><clipPath id="62e415a3c1"><path d="M 74 42 L 77.480469 42 L 77.480469 46 L 74 46 Z M 74 42 " clip-rule="nonzero"/></clipPath></defs><g clip-path="url(#f6170cc376)"><path fill="#00618a" d="M 12.941406 45.800781 L 15.058594 45.800781 L 15.058594 37.386719 L 18.339844 44.722656 C 18.726562 45.609375 19.257812 45.925781 20.296875 45.925781 C 21.335938 45.925781 21.84375 45.613281 22.230469 44.722656 L 25.511719 37.386719 L 25.511719 45.804688 L 27.628906 45.804688 L 27.628906 37.398438 C 27.628906 36.582031 27.304688 36.183594 26.632812 35.980469 C 25.023438 35.472656 23.941406 35.910156 23.453125 37.003906 L 20.234375 44.246094 L 17.117188 37 C 16.648438 35.90625 15.550781 35.46875 13.941406 35.976562 C 13.269531 36.179688 12.941406 36.578125 12.941406 37.398438 Z M 29.390625 38.949219 L 31.507812 38.949219 L 31.507812 43.585938 C 31.488281 43.839844 31.589844 44.429688 32.75 44.449219 C 33.339844 44.457031 37.320312 44.449219 37.355469 44.449219 L 37.355469 38.925781 L 39.480469 38.925781 C 39.488281 38.925781 39.476562 46.457031 39.476562 46.488281 C 39.488281 48.34375 37.1875 48.75 36.125 48.78125 L 29.4375 48.78125 L 29.4375 47.347656 L 36.136719 47.34375 C 37.5 47.199219 37.339844 46.519531 37.339844 46.289062 L 37.339844 45.730469 L 32.835938 45.730469 C 30.742188 45.710938 29.410156 44.789062 29.390625 43.730469 C 29.390625 43.636719 29.4375 38.996094 29.390625 38.949219 Z M 29.390625 38.949219 " fill-opacity="1" fill-rule="nonzero"/></g><path fill="#e48e00" d="M 41.113281 45.800781 L 47.203125 45.800781 C 47.914062 45.800781 48.609375 45.652344 49.160156 45.390625 C 50.074219 44.96875 50.523438 44.394531 50.523438 43.640625 L 50.523438 42.085938 C 50.523438 41.46875 50.015625 40.894531 49.015625 40.511719 C 48.488281 40.308594 47.835938 40.199219 47.203125 40.199219 L 44.636719 40.199219 C 43.78125 40.199219 43.375 39.9375 43.273438 39.363281 C 43.25 39.296875 43.25 39.238281 43.25 39.171875 L 43.25 38.203125 C 43.25 38.148438 43.25 38.09375 43.273438 38.027344 C 43.375 37.589844 43.597656 37.464844 44.351562 37.394531 C 44.414062 37.394531 44.492188 37.378906 44.554688 37.378906 L 50.605469 37.378906 L 50.605469 35.960938 L 44.65625 35.960938 C 43.800781 35.960938 43.355469 36.015625 42.945312 36.136719 C 41.679688 36.535156 41.132812 37.164062 41.132812 38.257812 L 41.132812 39.5 C 41.132812 40.457031 42.210938 41.277344 44.023438 41.46875 C 44.226562 41.484375 44.429688 41.496094 44.632812 41.496094 L 46.835938 41.496094 C 46.917969 41.496094 46.996094 41.496094 47.058594 41.511719 C 47.730469 41.566406 48.015625 41.6875 48.21875 41.933594 C 48.34375 42.058594 48.382812 42.179688 48.382812 42.3125 L 48.382812 43.554688 C 48.382812 43.707031 48.28125 43.898438 48.078125 44.0625 C 47.894531 44.226562 47.589844 44.335938 47.179688 44.363281 C 47.101562 44.363281 47.039062 44.375 46.957031 44.375 L 41.109375 44.375 L 41.109375 45.796875 Z M 63.738281 43.328125 C 63.738281 44.789062 64.816406 45.609375 66.996094 45.773438 C 67.203125 45.789062 67.40625 45.796875 67.609375 45.800781 L 73.128906 45.800781 L 73.128906 44.378906 L 67.566406 44.378906 C 66.324219 44.378906 65.855469 44.066406 65.855469 43.3125 L 65.855469 35.960938 L 63.738281 35.960938 Z M 51.875 43.402344 L 51.875 38.335938 C 51.875 37.046875 52.773438 36.269531 54.546875 36.023438 C 54.738281 35.996094 54.929688 35.980469 55.121094 35.980469 L 59.140625 35.980469 C 59.339844 35.980469 59.539062 35.996094 59.734375 36.023438 C 61.511719 36.269531 62.40625 37.046875 62.40625 38.335938 L 62.40625 43.402344 C 62.40625 44.445312 62.027344 45.003906 61.148438 45.367188 L 63.234375 47.265625 L 60.773438 47.265625 L 59.085938 45.730469 L 57.386719 45.839844 L 55.121094 45.839844 C 54.734375 45.839844 54.324219 45.785156 53.875 45.660156 C 52.523438 45.292969 51.875 44.578125 51.875 43.402344 Z M 54.160156 43.273438 C 54.160156 43.34375 54.183594 43.410156 54.203125 43.496094 C 54.328125 44.082031 54.875 44.410156 55.710938 44.410156 L 57.632812 44.410156 L 55.867188 42.804688 L 58.328125 42.804688 L 59.863281 44.207031 C 60.148438 44.054688 60.335938 43.820312 60.398438 43.523438 C 60.417969 43.453125 60.417969 43.386719 60.417969 43.316406 L 60.417969 38.460938 C 60.417969 38.40625 60.417969 38.332031 60.398438 38.265625 C 60.273438 37.71875 59.726562 37.40625 58.910156 37.40625 L 55.714844 37.40625 C 54.773438 37.40625 54.164062 37.816406 54.164062 38.460938 L 54.164062 43.277344 Z M 54.160156 43.273438 " fill-opacity="1" fill-rule="nonzero"/><path fill="#00618a" d="M 74.992188 33.605469 C 73.691406 33.570312 72.695312 33.691406 71.84375 34.050781 C 71.601562 34.15625 71.21875 34.15625 71.179688 34.460938 C 71.3125 34.601562 71.332031 34.8125 71.4375 34.984375 C 71.640625 35.3125 71.984375 35.757812 72.289062 35.988281 C 72.625 36.242188 72.96875 36.515625 73.324219 36.734375 C 73.964844 37.125 74.675781 37.347656 75.289062 37.742188 C 75.648438 37.972656 76.007812 38.261719 76.363281 38.523438 C 76.535156 38.652344 76.65625 38.851562 76.878906 38.933594 L 76.878906 38.894531 C 76.761719 38.742188 76.730469 38.53125 76.621094 38.375 L 76.140625 37.890625 C 75.667969 37.257812 75.070312 36.710938 74.4375 36.25 C 73.929688 35.882812 72.796875 35.390625 72.585938 34.796875 L 72.546875 34.757812 C 72.90625 34.71875 73.328125 34.585938 73.660156 34.5 C 74.214844 34.347656 74.714844 34.386719 75.289062 34.238281 L 76.066406 34.015625 L 76.066406 33.867188 C 75.777344 33.566406 75.570312 33.167969 75.253906 32.898438 C 74.421875 32.1875 73.519531 31.476562 72.585938 30.882812 C 72.070312 30.554688 71.429688 30.34375 70.882812 30.066406 C 70.699219 29.972656 70.375 29.921875 70.253906 29.765625 C 69.964844 29.398438 69.808594 28.929688 69.585938 28.503906 C 69.121094 27.601562 68.664062 26.617188 68.253906 25.671875 C 67.972656 25.023438 67.789062 24.386719 67.441406 23.808594 C 65.757812 21.027344 63.949219 19.347656 61.144531 17.699219 C 60.546875 17.347656 59.828125 17.207031 59.070312 17.027344 L 57.847656 16.953125 C 57.601562 16.847656 57.339844 16.542969 57.109375 16.394531 C 56.179688 15.800781 53.796875 14.519531 53.109375 16.203125 C 52.675781 17.269531 53.757812 18.308594 54.144531 18.847656 C 54.417969 19.230469 54.765625 19.652344 54.960938 20.078125 C 55.085938 20.359375 55.109375 20.640625 55.21875 20.9375 C 55.488281 21.664062 55.722656 22.460938 56.070312 23.132812 C 56.246094 23.476562 56.441406 23.835938 56.664062 24.140625 C 56.800781 24.328125 57.035156 24.410156 57.070312 24.699219 C 56.84375 25.023438 56.828125 25.519531 56.699219 25.929688 C 56.121094 27.765625 56.339844 30.046875 57.179688 31.40625 C 57.441406 31.824219 58.046875 32.71875 58.886719 32.375 C 59.617188 32.074219 59.449219 31.144531 59.664062 30.324219 C 59.710938 30.140625 59.679688 30.003906 59.773438 29.878906 L 59.773438 29.914062 L 60.441406 31.257812 C 60.933594 32.054688 61.808594 32.890625 62.550781 33.457031 C 62.9375 33.75 63.242188 34.253906 63.734375 34.425781 L 63.734375 34.386719 L 63.699219 34.386719 C 63.601562 34.234375 63.453125 34.171875 63.328125 34.050781 C 63.039062 33.765625 62.714844 33.410156 62.476562 33.082031 C 61.800781 32.160156 61.207031 31.152344 60.664062 30.101562 C 60.402344 29.601562 60.175781 29.046875 59.960938 28.539062 C 59.875 28.339844 59.875 28.042969 59.699219 27.941406 C 59.460938 28.316406 59.109375 28.617188 58.921875 29.058594 C 58.625 29.765625 58.585938 30.625 58.476562 31.519531 C 58.414062 31.542969 58.441406 31.527344 58.402344 31.554688 C 57.886719 31.429688 57.707031 30.898438 57.515625 30.4375 C 57.03125 29.277344 56.941406 27.414062 57.367188 26.078125 C 57.476562 25.734375 57.976562 24.648438 57.773438 24.328125 C 57.679688 24.011719 57.359375 23.824219 57.183594 23.582031 C 56.960938 23.28125 56.742188 22.886719 56.589844 22.539062 C 56.191406 21.636719 56.007812 20.621094 55.589844 19.707031 C 55.390625 19.269531 55.050781 18.828125 54.773438 18.445312 C 54.46875 18.015625 54.125 17.695312 53.886719 17.179688 C 53.800781 16.996094 53.6875 16.699219 53.8125 16.507812 C 53.839844 16.386719 53.914062 16.3125 54.035156 16.285156 C 54.25 16.121094 54.847656 16.339844 55.070312 16.433594 C 55.664062 16.683594 56.160156 16.917969 56.664062 17.253906 C 56.90625 17.414062 57.148438 17.726562 57.441406 17.8125 L 57.773438 17.8125 C 58.296875 17.933594 58.878906 17.851562 59.367188 18 C 60.226562 18.265625 61 18.671875 61.699219 19.117188 C 63.832031 20.472656 65.578125 22.40625 66.773438 24.710938 C 66.964844 25.082031 67.046875 25.433594 67.214844 25.828125 C 67.558594 26.617188 67.988281 27.4375 68.328125 28.210938 C 68.667969 28.984375 68.996094 29.765625 69.476562 30.410156 C 69.726562 30.75 70.699219 30.929688 71.140625 31.117188 C 71.453125 31.25 71.960938 31.386719 72.253906 31.566406 C 72.8125 31.90625 73.355469 32.3125 73.882812 32.683594 C 74.144531 32.871094 74.953125 33.277344 74.992188 33.613281 Z M 74.992188 33.605469 " fill-opacity="1" fill-rule="nonzero"/><path fill="#00618a" d="M 58.441406 19.410156 C 58.171875 19.40625 57.976562 19.4375 57.773438 19.484375 L 57.773438 19.519531 L 57.8125 19.519531 C 57.941406 19.789062 58.171875 19.960938 58.332031 20.191406 L 58.699219 20.972656 L 58.738281 20.9375 C 58.96875 20.773438 59.074219 20.515625 59.070312 20.117188 C 58.980469 20.019531 58.964844 19.898438 58.886719 19.78125 C 58.78125 19.625 58.570312 19.539062 58.441406 19.410156 Z M 58.441406 19.410156 " fill-opacity="1" fill-rule="evenodd"/><g clip-path="url(#62e415a3c1)"><path fill="#e48e00" d="M 74.125 44.339844 C 74.125 45.277344 74.863281 45.910156 75.6875 45.910156 C 76.511719 45.910156 77.246094 45.277344 77.246094 44.339844 C 77.246094 43.402344 76.511719 42.769531 75.6875 42.769531 C 74.863281 42.769531 74.125 43.402344 74.125 44.339844 Z M 76.898438 44.339844 C 76.898438 45.050781 76.355469 45.582031 75.6875 45.582031 C 75.007812 45.582031 74.472656 45.050781 74.472656 44.339844 C 74.472656 43.628906 75.007812 43.09375 75.6875 43.09375 C 76.355469 43.09375 76.898438 43.628906 76.898438 44.339844 Z M 76.105469 45.234375 L 76.457031 45.234375 L 75.945312 44.449219 C 76.21875 44.417969 76.425781 44.285156 76.425781 43.957031 C 76.425781 43.59375 76.199219 43.441406 75.757812 43.441406 L 75.0625 43.441406 L 75.0625 45.234375 L 75.363281 45.234375 L 75.363281 44.460938 L 75.640625 44.460938 Z M 75.363281 44.210938 L 75.363281 43.695312 L 75.707031 43.695312 C 75.886719 43.695312 76.101562 43.726562 76.101562 43.9375 C 76.101562 44.1875 75.90625 44.210938 75.679688 44.210938 Z M 75.363281 44.210938 " fill-opacity="1" fill-rule="evenodd"/></g></svg>